<svg width="430" height="394" viewBox="0 0 430 394" fill="none" xmlns="http://www.w3.org/2000/svg">
<path d="M204.623 342.286C200.695 342.286 196.841 341.62 193.135 340.364L84.2602 302.655C75.1441 299.476 67.6585 292.6 63.7304 283.801L41.57 233.746C36.6043 222.507 37.9384 209.272 45.2017 199.291L159.19 41.2126C170.011 26.2033 190.689 22.2107 206.253 32.1183L377.829 140.437C391.615 149.161 397.544 166.611 391.985 181.916L349.295 298.663C345.071 310.197 334.917 318.774 322.836 320.992L210.997 341.694C208.921 342.138 206.772 342.286 204.623 342.286ZM159.783 41.6562L45.7946 199.734C38.7537 209.494 37.4196 222.433 42.2371 233.45L64.3974 283.506C68.2514 292.156 75.5146 298.885 84.4825 301.99L193.357 339.698C198.99 341.62 204.993 342.064 210.848 341.029L322.688 320.326C334.546 318.108 344.478 309.753 348.554 298.441L391.244 181.694C396.729 166.684 390.874 149.679 377.385 141.102L205.883 32.7837C190.689 23.0979 170.456 26.9427 159.783 41.6562Z" fill="#F3F7FF"/>
<path d="M70.7734 280.774L48.613 230.718C44.6849 221.846 45.7967 211.569 51.4294 203.731L165.418 45.653C173.867 33.897 190.024 30.7916 202.253 38.5551L373.829 146.873C384.724 153.75 389.319 167.206 384.872 179.332L342.182 296.079C338.847 305.173 330.991 311.828 321.504 313.528L209.665 334.231C204.995 335.118 200.178 334.748 195.657 333.196L86.7822 295.488C79.6672 293.048 73.8121 287.724 70.7734 280.774Z" fill="#F3F7FF"/>
<path d="M263.546 184.503V219.697C263.546 220.954 262.509 221.989 261.249 221.989H224.932C223.672 221.989 222.635 220.954 222.635 219.697V184.503C222.635 183.246 223.672 182.211 224.932 182.211H261.249C262.509 182.211 263.546 183.246 263.546 184.503Z" fill="white"/>
<path d="M281.852 184.503V219.697C281.852 220.954 280.814 221.989 279.554 221.989H261.248C262.508 221.989 263.546 220.954 263.546 219.697V184.503C263.546 183.246 262.508 182.211 261.248 182.211H279.554C280.889 182.211 281.852 183.246 281.852 184.503Z" fill="#E1EAF9"/>
<path d="M218.482 195.002V220.288C218.482 221.175 217.741 221.915 216.852 221.915H190.763C189.874 221.915 189.133 221.175 189.133 220.288V195.002C189.133 194.114 189.874 193.375 190.763 193.375H216.852C217.741 193.375 218.482 194.114 218.482 195.002Z" fill="white"/>
<path d="M231.677 195.002V220.289C231.677 221.176 230.936 221.915 230.046 221.915H216.854C217.743 221.915 218.484 221.176 218.484 220.289V195.002C218.484 194.115 217.743 193.375 216.854 193.375H230.046C230.936 193.375 231.677 194.115 231.677 195.002ZM207.219 193.375V198.551C207.219 199.069 206.774 199.512 206.255 199.512H201.29C200.771 199.512 200.326 199.069 200.326 198.551V193.375H207.219ZM246.87 182.211V188.57C246.87 189.235 246.352 189.753 245.684 189.753H239.607C238.94 189.753 238.421 189.235 238.421 188.57V182.211H246.87Z" fill="#E1EAF9"/>
<path d="M304.455 78.4039V300.216C304.455 301.621 303.344 302.73 301.936 302.73H292.819C291.411 302.73 290.3 301.621 290.3 300.216V78.4039C290.3 76.9991 291.411 75.89 292.819 75.89H301.936C303.344 75.8161 304.455 76.9991 304.455 78.4039ZM134.881 84.0231V300.216C134.881 301.621 133.769 302.73 132.361 302.73H123.245C121.836 302.73 120.725 301.621 120.725 300.216V84.0231C120.725 82.6183 121.836 81.5093 123.245 81.5093H132.361C133.695 81.5093 134.881 82.6183 134.881 84.0231Z" fill="#E5EDF9"/>
<path d="M134.882 112.121H290.375V119.737H134.882V112.121ZM134.882 167.057H290.375V174.672H134.882V167.057ZM134.882 221.918H290.375V229.534H134.882V221.918ZM395.099 358.998C395.099 363.582 312.313 367.279 210.182 367.279C108.052 367.279 25.2656 363.582 25.2656 358.998C25.2656 354.488 108.052 350.791 210.182 350.791C312.313 350.791 395.099 354.488 395.099 358.998Z" fill="#E5EDF9"/>
<path d="M178.313 128.014C175.941 129.789 173.421 131.268 171.124 132.377C167.122 134.299 163.935 135.26 163.935 135.26L156.375 124.391C156.375 124.391 160.007 122.469 161.711 120.103C161.934 119.807 162.082 119.585 162.23 119.29C163.49 116.628 162.971 112.192 164.676 111.23C166.381 110.269 168.011 114.336 167.122 119.216C167.122 119.216 176.831 106.203 178.98 107.386C180.24 108.051 177.572 112.34 175.497 115.445C178.906 111.378 183.205 106.646 184.465 107.238C185.65 107.903 182.093 113.153 179.351 116.924C182.389 113.596 185.725 110.417 186.762 110.935C187.8 111.526 185.65 115.001 183.353 118.181C185.206 116.924 186.614 116.11 187.207 116.554C188.986 117.959 178.313 128.014 178.313 128.014Z" fill="#FF847A"/>
<path d="M171.124 132.379C167.122 134.301 163.935 135.263 163.935 135.263L156.375 124.394C156.375 124.394 160.007 122.471 161.711 120.105C161.785 120.919 162.008 121.658 162.527 122.324C163.342 123.58 164.676 124.468 165.862 125.429C167.344 126.612 168.604 128.017 169.716 129.495C170.309 130.457 170.902 131.418 171.124 132.379ZM167.122 125.355H167.048C166.973 125.281 166.899 125.133 166.973 125.059C168.9 121.214 167.048 119.514 167.048 119.44C166.973 119.366 166.973 119.218 167.048 119.144C167.122 119.07 167.27 119.07 167.344 119.144C167.418 119.218 169.493 121.141 167.418 125.281C167.344 125.355 167.196 125.355 167.122 125.355ZM182.167 121.362C182.093 121.362 182.019 121.288 181.945 121.214C179.054 116.039 171.643 117.074 171.569 117.074C171.42 117.074 171.346 117 171.346 116.852C171.346 116.704 171.42 116.63 171.569 116.63C171.643 116.63 179.351 115.595 182.389 120.993C182.463 121.067 182.389 121.214 182.315 121.288C182.241 121.362 182.167 121.362 182.167 121.362Z" fill="#F9695D"/>
<path d="M174.458 117.075C174.384 117.075 174.384 117.075 174.31 117.001C174.236 116.927 174.162 116.779 174.236 116.705L175.273 115.374C175.347 115.3 175.496 115.226 175.57 115.3C175.644 115.374 175.718 115.522 175.644 115.596L174.606 116.927C174.606 117.075 174.532 117.075 174.458 117.075ZM178.683 118.184C178.609 118.184 178.609 118.184 178.534 118.11C178.46 118.036 178.386 117.888 178.46 117.814L179.053 117.075C179.127 117.001 179.276 116.927 179.35 117.001C179.424 117.075 179.498 117.223 179.424 117.296L178.831 118.036C178.831 118.184 178.757 118.184 178.683 118.184ZM181.647 120.402C181.573 120.402 181.573 120.402 181.499 120.328C181.425 120.254 181.425 120.106 181.499 120.032L183.426 117.962C183.5 117.888 183.648 117.888 183.722 117.962C183.797 118.036 183.797 118.184 183.722 118.258L181.796 120.328C181.721 120.402 181.647 120.402 181.647 120.402Z" fill="#F9695D"/>
<path d="M166.084 136.886C159.339 145.241 131.324 178.439 116.575 178.957C113.832 179.031 110.349 177.626 106.569 175.334C101.604 172.302 96.1932 167.792 91.3016 163.208C82.6301 155.149 75.5892 147.016 75.5892 147.016C75.5892 147.016 75.3669 124.539 80.7031 126.092C92.5615 129.419 114.648 150.047 114.648 150.047L154.151 123.208C155.411 122.321 157.116 122.617 158.079 123.726L165.935 133.19C166.973 134.225 166.973 135.777 166.084 136.886Z" fill="#FFCE3F"/>
<path d="M106.645 175.338C101.679 172.306 96.2685 167.796 91.377 163.212L99.7519 145.023C99.7519 145.023 105.533 163.286 106.645 175.338Z" fill="#FBBC05"/>
<path d="M45.4997 335.339L45.2774 340.293L44.8327 350.423L34.1602 350.053L34.4566 344.877L34.9754 333.195L45.4997 335.339Z" fill="#FF847A"/>
<path d="M45.4981 335.339L45.2757 340.293C43.9417 340.219 42.6817 340.145 41.3477 340.219C40.0136 340.293 38.5313 340.663 37.7901 341.772C37.4937 342.29 37.4196 342.881 37.1231 343.399C36.6043 344.36 35.4926 344.803 34.3809 344.877L34.9738 333.195L45.4981 335.339Z" fill="#F46256"/>
<path d="M58.9135 358.627C58.8393 358.775 58.8393 358.923 58.7652 359.071L58.0982 360.771L30.6016 349.902L32.5286 345.023C32.825 344.283 33.5662 343.914 34.3073 344.135C37.8648 345.17 41.4223 345.17 44.9799 343.47C45.7951 343.1 46.6845 343.396 47.0551 344.209L48.9079 348.498L54.4666 350.716L55.4301 351.085C58.3205 352.342 59.8028 355.596 58.9135 358.627Z" fill="#5293FF"/>
<path d="M58.6175 361.437L58.0987 362.768C58.0246 362.989 57.8023 363.063 57.5799 362.989L29.4904 351.899C29.268 351.825 29.1939 351.603 29.268 351.381L29.7868 350.05C29.8609 349.829 30.0833 349.755 30.3056 349.829L58.3952 360.919C58.6175 360.993 58.6916 361.215 58.6175 361.437Z" fill="#FFCE3F"/>
<path d="M74.329 271.306L49.7228 340.068C43.5713 340.586 36.308 339.107 31.7129 335.262L50.9828 267.314L44.8312 214.3L43.3489 201.805L60.173 201.287L74.0325 200.844L74.329 211.491L74.8478 232.415L75.5889 263.173C75.7371 265.909 75.2925 268.718 74.329 271.306Z" fill="#580E08"/>
<path d="M125.914 348.719L115.834 352.268L113.833 346.427L110.35 336.298L120.948 334.449L122.653 339.255L125.914 348.719Z" fill="#FF847A"/>
<path d="M122.653 339.255C121.393 339.698 119.985 339.772 118.651 339.92C117.984 339.994 117.242 340.068 116.649 340.29C115.982 340.585 115.464 341.029 115.241 341.695C114.871 342.951 115.76 344.356 115.167 345.465C114.945 345.909 114.426 346.205 113.907 346.353L110.424 336.223L120.948 334.301L122.653 339.255Z" fill="#F46256"/>
<path d="M125.098 337.332C120.726 339.624 112.425 339.698 105.977 338.367L91.0796 266.87L74.9226 232.415L65.9547 213.339L60.322 201.287L60.0996 200.844H92.5619L93.5995 203.727L114.129 261.842C114.648 263.247 115.019 264.726 115.241 266.278L125.098 337.332Z" fill="#580E08"/>
<path d="M33.2693 329.863L31.7129 335.261C36.308 339.032 43.5713 340.584 49.7228 340.067L51.5016 335.039C43.8677 335.187 37.7903 333.412 33.2693 329.863ZM104.494 331.342L105.976 338.366C112.424 339.697 120.725 339.623 125.098 337.331L124.282 331.268C117.538 333.043 110.942 333.19 104.494 331.342Z" fill="#FFCE3F"/>
<path d="M93.5996 203.727C93.1549 204.023 92.6361 204.319 92.0432 204.615C88.8563 206.241 85.5952 207.646 82.3342 208.903C79.7401 209.864 77.072 210.751 74.4039 211.417C71.6616 212.156 68.7711 212.822 65.9548 213.265C64.5466 213.487 63.0643 213.709 61.6561 213.931C57.6539 214.448 53.5776 214.67 49.5012 214.596C47.9448 214.596 46.4625 214.522 44.9061 214.3L43.4238 201.805L60.2479 201.287L60.0256 200.844H92.4879L93.5996 203.727Z" fill="#043D13"/>
<path d="M141.998 351.678V353.526H112.426V348.055C112.426 347.463 112.87 346.946 113.463 346.872C117.391 346.502 120.875 345.171 123.617 342.066C124.062 341.548 124.877 341.548 125.322 341.992L128.805 345.541H135.846C138.811 345.541 141.331 347.685 141.849 350.569C141.998 350.938 141.998 351.308 141.998 351.678Z" fill="#5293FF"/>
<path d="M142.737 353.894V355.299C142.737 355.521 142.514 355.743 142.292 355.743H112.053C111.831 355.743 111.608 355.521 111.608 355.299V353.894C111.608 353.673 111.831 353.451 112.053 353.451H142.366C142.588 353.525 142.737 353.673 142.737 353.894ZM98.1935 203.284C99.2311 214.005 61.2102 203.506 46.9801 205.132C27.9326 207.276 48.0919 191.75 42.1627 157.443C42.0145 156.481 41.7921 155.52 41.5698 154.485C36.9746 132.748 46.1649 124.688 57.875 122.766L58.7644 122.544C63.7301 121.435 67.9547 121.953 67.9547 121.953C71.8828 122.618 75.3662 123.505 78.479 124.54C79.146 124.762 79.813 124.984 80.4801 125.28C112.72 137.553 99.0088 168.977 97.9712 195.077C97.8971 197.812 97.8971 200.622 98.1935 203.284Z" fill="#FFCE3F"/>
<path d="M46.9801 205.061C27.9326 207.205 48.0919 191.678 42.1627 157.371C44.1638 157.667 46.0167 158.85 46.5355 160.698C47.0543 162.399 46.7578 164.321 46.7578 166.022C46.7578 168.684 46.8319 171.345 47.3507 174.007C48.2401 178.665 50.3153 183.249 54.0952 186.207C58.3197 189.534 64.0266 190.347 69.437 190.939C76.6261 191.826 83.8153 192.713 91.0044 193.527C93.3761 193.822 95.8219 194.118 98.1194 194.931C97.9712 197.741 98.0453 200.551 98.2677 203.212C99.2312 214.007 61.2102 203.508 46.9801 205.061Z" fill="#FBBC05"/>
<path d="M157.191 359.07C162.021 359.07 165.936 355.164 165.936 350.346C165.936 345.527 162.021 341.621 157.191 341.621C152.361 341.621 148.445 345.527 148.445 350.346C148.445 355.164 152.361 359.07 157.191 359.07Z" fill="#3C5D94"/>
<path d="M157.19 354.263C159.359 354.263 161.118 352.509 161.118 350.345C161.118 348.18 159.359 346.426 157.19 346.426C155.02 346.426 153.262 348.18 153.262 350.345C153.262 352.509 155.02 354.263 157.19 354.263Z" fill="white"/>
<path d="M273.404 359.07C278.234 359.07 282.149 355.164 282.149 350.346C282.149 345.527 278.234 341.621 273.404 341.621C268.574 341.621 264.658 345.527 264.658 350.346C264.658 355.164 268.574 359.07 273.404 359.07Z" fill="#3C5D94"/>
<path d="M273.401 354.263C275.57 354.263 277.329 352.509 277.329 350.345C277.329 348.18 275.57 346.426 273.401 346.426C271.231 346.426 269.473 348.18 269.473 350.345C269.473 352.509 271.231 354.263 273.401 354.263Z" fill="white"/>
<path d="M146.665 341.18C146.517 341.18 146.369 341.033 146.295 340.885L115.685 208.537C115.611 208.315 115.759 208.167 115.982 208.093C116.204 208.019 116.352 208.167 116.426 208.389L147.036 340.737C147.11 340.959 146.962 341.107 146.739 341.18H146.665ZM188.466 340.663C188.318 340.663 188.17 340.515 188.096 340.367L155.93 204.322C155.856 204.1 156.004 203.953 156.226 203.879C156.449 203.805 156.597 203.953 156.671 204.174L188.837 340.219C188.911 340.441 188.763 340.589 188.54 340.663H188.466Z" fill="#1E7034"/>
<path d="M80.4814 125.209V128.61C80.4814 131.346 78.1838 133.638 75.2192 133.86C74.7745 133.86 74.404 133.934 73.9593 133.934C68.4748 133.934 63.6573 130.828 59.6551 124.766C59.2104 124.026 58.914 123.213 58.8398 122.4C63.8055 121.291 68.0301 121.808 68.0301 121.808C71.9582 122.474 75.4416 123.361 78.5544 124.396C79.1473 124.766 79.8144 124.987 80.4814 125.209Z" fill="white"/>
<path d="M77.8134 119.366V128.682C77.8134 130.013 76.5534 131.196 74.997 131.27C69.9572 131.713 65.5844 129.051 61.8787 123.358C61.6563 122.989 61.5081 122.545 61.5081 122.175L61.3599 112.785C61.2858 112.785 69.4384 117.887 77.8134 119.366Z" fill="#FF847A"/>
<path d="M78.7777 119.733C70.6992 119.955 61.2866 112.783 61.2866 112.783L60.916 105.907L63.4359 105.316C63.4359 105.316 62.5465 101.988 65.5111 101.397C68.4757 100.805 65.5111 98.0696 65.5111 98.0696C75.5908 102.136 81.0011 94.8164 81.0011 94.8164V94.8903C81.1494 95.334 81.8164 97.1824 82.5576 99.6963C83.0023 101.397 83.5211 103.393 83.8916 105.389C84.0399 106.351 84.1881 107.238 84.3363 108.199C85.0034 114.04 84.1881 119.585 78.7777 119.733Z" fill="#FF847A"/>
<path d="M84.7044 96.0755C84.4079 96.9627 83.7409 98.2197 82.5551 99.7723L80.9987 94.8185C80.9987 94.8185 75.5142 102.138 65.5086 98.0718C65.5086 98.0718 68.5474 100.807 65.5086 101.399C62.544 101.99 63.4334 105.318 63.4334 105.318L57.356 106.796C57.356 106.796 56.9113 105.983 56.3184 104.726C54.3173 100.438 50.6857 90.8259 58.616 90.678C58.616 90.678 56.7631 84.0976 63.9522 83.4322C71.1414 82.7667 70.919 89.0514 70.919 89.0514C70.919 89.0514 74.5507 84.2455 77.4411 83.9497C83.3703 83.3582 82.1104 93.1919 82.1104 93.1919C82.1104 93.1919 85.8161 92.7483 84.7044 96.0755Z" fill="#580E08"/>
<path d="M63.8069 102.803C63.7328 102.803 63.6587 102.803 63.5846 102.729C63.4364 102.581 63.3623 102.359 63.5105 102.212C63.9552 101.62 64.6222 101.176 65.4375 101.029C65.808 100.955 66.3268 100.807 66.401 100.437C66.5492 99.8455 65.7339 98.8104 65.2151 98.2928C65.0669 98.1449 65.0669 97.9971 65.141 97.8492C65.2151 97.7013 65.4375 97.6274 65.5857 97.7013C75.2206 101.62 80.4828 94.8917 80.631 94.596C80.7793 94.4481 81.0016 94.3741 81.1498 94.522C81.2981 94.6699 81.3722 94.8917 81.2239 95.0396C81.1498 95.1135 75.9618 101.842 66.6233 98.8843C66.9939 99.4019 67.2903 100.067 67.068 100.659C66.9198 101.25 66.401 101.62 65.5116 101.768C64.8446 101.916 64.3257 102.212 64.0293 102.655C64.0293 102.729 63.9552 102.803 63.8069 102.803Z" fill="#043D13"/>
<path d="M63.6575 103.544C63.287 102.878 62.9164 102.213 62.3976 101.695C61.7306 101.178 60.8412 100.956 59.9518 101.104C59.433 101.251 58.9883 101.473 58.5436 101.769C57.4319 102.656 56.7648 104.061 56.9131 105.466C57.0613 106.871 58.0248 108.128 59.3589 108.645C60.6929 109.163 62.3235 108.719 63.2128 107.684L63.6575 103.544Z" fill="#FF847A"/>
<path d="M74.6994 104.726C74.6994 105.317 74.3289 105.835 73.8101 105.835C73.2913 105.835 72.9207 105.317 72.9207 104.726C72.9207 104.134 73.2913 103.617 73.8101 103.617C74.3289 103.617 74.6994 104.134 74.6994 104.726ZM82.4815 103.986C82.4815 104.578 82.1109 105.095 81.5921 105.095C81.0733 105.095 80.7028 104.578 80.7028 103.986C80.7028 103.395 81.0733 102.877 81.5921 102.877C82.1109 102.877 82.4815 103.395 82.4815 103.986ZM75.1441 101.029C75.2924 101.029 75.4406 101.029 75.5888 101.103C75.7371 101.177 75.8112 101.324 75.8112 101.398C75.8112 101.62 75.5147 101.768 75.2924 101.842C74.1806 102.212 72.9948 102.36 71.8831 102.36C71.4384 102.36 70.9196 102.212 70.8455 101.694C70.7714 101.251 71.1419 101.103 71.5125 101.029C72.6983 100.955 73.9583 100.955 75.1441 101.029ZM82.5556 100.511C82.7039 100.511 82.8521 100.511 83.0003 100.585C83.1485 100.659 83.2227 100.807 83.2227 100.881C83.2227 101.103 82.9262 101.251 82.7039 101.324C81.5921 101.694 80.4063 101.842 79.2946 101.842C78.8499 101.842 78.3311 101.694 78.257 101.177C78.1829 100.733 78.5534 100.585 78.924 100.511C80.1098 100.437 81.3698 100.363 82.5556 100.511Z" fill="#043D13"/>
<path d="M77.1465 101.402C77.2947 102.142 77.3688 102.807 77.5171 103.547C77.5912 104.138 77.7394 104.73 78.1841 105.247C78.777 105.839 79.7405 105.986 80.4075 106.504C81.0005 106.948 81.2228 107.761 80.8522 108.352C80.5558 108.722 80.037 109.018 79.5182 109.092C78.9994 109.166 78.4064 109.166 77.8876 109.166" fill="#FF847A"/>
<path d="M78.4803 109.309H77.8133C77.7392 109.309 77.6651 109.235 77.6651 109.087C77.6651 108.939 77.7392 108.865 77.8874 108.939C78.4062 108.939 78.925 109.013 79.4438 108.865C79.9626 108.791 80.4073 108.496 80.6297 108.2C80.9261 107.682 80.7779 107.017 80.2591 106.573C79.9626 106.351 79.6662 106.204 79.2956 106.056C78.8509 105.834 78.4062 105.686 78.1098 105.316C77.591 104.799 77.5169 104.133 77.3686 103.542L76.998 101.398C76.998 101.324 77.0722 101.176 77.1463 101.176C77.2204 101.176 77.3686 101.25 77.3686 101.324L77.7392 103.468C77.8133 103.985 77.8874 104.577 78.3321 105.021C78.6286 105.316 78.9992 105.464 79.4438 105.686C79.8144 105.834 80.185 106.056 80.4814 106.277C81.1485 106.869 81.3708 107.756 80.9261 108.422C80.6297 108.791 80.1109 109.161 79.5179 109.235C79.1474 109.309 78.8509 109.309 78.4803 109.309Z" fill="#EF6054"/>
<path d="M76.4785 112.565C76.4785 112.565 78.8502 115.375 81.0736 112.27L76.4785 112.565Z" fill="#FF847A"/>
<path d="M78.7777 113.969C77.4436 113.969 76.406 112.786 76.3319 112.712C76.2578 112.638 76.2578 112.49 76.3319 112.416C76.406 112.342 76.5542 112.342 76.6284 112.416C76.6284 112.416 77.5919 113.525 78.7777 113.525H78.8518C79.593 113.525 80.3341 113.007 80.927 112.12C81.0011 112.046 81.0752 112.046 81.1494 112.046C81.2235 112.12 81.2235 112.194 81.2235 112.268C80.4823 113.229 79.7412 113.747 78.8518 113.821C78.8518 113.969 78.7777 113.969 78.7777 113.969ZM62.1018 105.983C62.0277 105.983 61.9536 105.91 61.9536 105.836C61.6571 103.47 59.7302 103.1 59.656 103.026C59.5819 103.026 59.5078 102.878 59.5078 102.804C59.5078 102.73 59.656 102.656 59.7302 102.656C59.7302 102.656 62.0277 103.1 62.3983 105.762C62.3242 105.91 62.2501 105.983 62.1018 105.983C62.1759 105.983 62.1759 105.983 62.1018 105.983Z" fill="#EF6054"/>
<path d="M62.0267 105.614C61.9525 105.614 61.8784 105.614 61.8784 105.54C61.0632 104.357 59.4326 105.244 59.3585 105.244C59.2844 105.318 59.1362 105.244 59.1362 105.17C59.0621 105.096 59.1362 104.949 59.2103 104.949C59.8773 104.579 61.3596 104.135 62.1749 105.318C62.249 105.392 62.249 105.54 62.1008 105.54C62.1008 105.614 62.1008 105.614 62.0267 105.614ZM77.8131 119.736C77.8131 119.736 72.6992 119.81 67.9558 116.852C67.9558 116.852 69.6605 124.024 77.8131 122.989V119.736Z" fill="#EF6054"/>
<path d="M154.67 197.664L117.094 203.505C113.166 204.17 111.758 209.124 114.797 211.786L115.982 212.821C117.094 213.782 118.576 214.152 120.059 213.856L156.449 206.98C160.303 206.167 161.563 201.361 158.599 198.773C157.561 197.812 156.079 197.442 154.67 197.664Z" fill="#3C5D94"/>
<path d="M136.883 206.759C136.587 208.311 135.772 208.829 134.586 208.09C134.289 209.79 133.474 210.382 132.214 209.494C131.769 211.786 129.991 211.565 129.027 208.829C128.212 206.463 126.433 204.984 123.543 204.541H123.246C120.207 204.171 116.057 205.576 112.129 201.213L117.391 190.566C117.762 191.01 118.28 191.602 118.873 192.193C119.985 193.228 121.467 194.337 123.543 194.633C131.621 195.964 138.143 197.443 139.181 205.28C139.477 206.833 138.143 207.424 136.883 206.759Z" fill="#FF847A"/>
<path d="M123.32 204.541C120.282 204.171 116.131 205.576 112.203 201.213L117.465 190.566C117.836 191.01 118.355 191.602 118.948 192.193C119.096 193.154 119.17 194.041 118.651 195.077C118.281 195.89 117.688 196.555 117.169 197.295C116.724 198.034 116.354 198.921 116.502 199.809C116.724 200.918 117.762 201.657 118.873 202.101C119.911 202.544 121.097 202.692 122.06 203.284C122.579 203.579 123.024 204.023 123.32 204.541Z" fill="#EF6054"/>
<path d="M62.0272 128.459C68.5493 134.892 70.1798 166.537 70.1798 166.537L116.131 186.87C117.539 187.535 118.132 189.236 117.465 190.641L112.203 201.362C111.684 202.471 110.498 203.062 109.312 202.914C99.6775 201.583 57.7285 195.373 47.9453 184.208C39.348 174.448 34.6047 137.036 45.3513 127.868C49.4276 124.245 58.0991 124.615 62.0272 128.459Z" fill="#FFCE3F"/>
<path d="M101.158 180.585H101.01L70.0302 166.906C69.882 166.832 69.8079 166.758 69.8079 166.61C69.8079 166.537 69.289 157.22 67.8809 147.83C67.8809 147.609 67.955 147.461 68.1773 147.387C68.3997 147.387 68.5479 147.461 68.622 147.682C69.9561 156.259 70.4749 164.836 70.549 166.315L101.307 179.919C101.529 179.993 101.603 180.215 101.529 180.437C101.455 180.511 101.307 180.585 101.158 180.585Z" fill="#FBBC05"/>
<path d="M136.957 206.834C136.957 206.834 136.142 202.102 131.695 200.105L136.957 206.834Z" fill="#FF847A"/>
<path d="M136.957 207.055C136.883 207.055 136.808 206.981 136.808 206.907C136.808 206.833 135.993 202.249 131.62 200.326C131.546 200.252 131.472 200.179 131.546 200.105C131.62 200.031 131.695 199.957 131.769 200.031C136.29 202.027 137.179 206.833 137.179 206.907C137.179 206.907 137.105 207.055 136.957 207.055Z" fill="#EF6054"/>
<path d="M134.66 208.089C134.66 208.089 134.067 203.727 130.139 201.805L134.66 208.089Z" fill="#FF847A"/>
<path d="M134.659 208.31C134.585 208.31 134.511 208.236 134.511 208.162C134.511 208.088 133.844 203.874 130.064 202.026C129.99 201.952 129.916 201.878 129.99 201.804C130.064 201.73 130.138 201.656 130.212 201.73C134.14 203.726 134.807 208.162 134.881 208.162C134.881 208.162 134.807 208.31 134.659 208.31Z" fill="#EF6054"/>
<path d="M132.288 209.57C132.288 209.57 131.769 204.764 128.73 203.434L132.288 209.57Z" fill="#FF847A"/>
<path d="M132.287 209.791C132.213 209.791 132.139 209.717 132.139 209.643C132.139 209.569 131.546 204.911 128.656 203.654C128.581 203.581 128.507 203.507 128.581 203.433C128.656 203.359 128.73 203.285 128.804 203.359C131.843 204.764 132.435 209.496 132.435 209.643L132.287 209.791Z" fill="#EF6054"/>
<path d="M240.645 281.364V329.498C240.645 333.86 237.088 337.409 232.715 337.409H213.371C217.744 337.409 221.301 333.86 221.301 329.498V281.364C221.301 277.002 217.744 273.453 213.371 273.453H232.715C237.088 273.453 240.645 277.002 240.645 281.364Z" fill="#CE2719"/>
<path d="M221.301 281.364V329.498C221.301 333.86 217.744 337.409 213.371 337.409H155.561C151.188 337.409 147.631 333.86 147.631 329.498V281.364C147.631 277.002 151.188 273.453 155.561 273.453H213.371C217.744 273.453 221.301 277.002 221.301 281.364Z" fill="#EA4335"/>
<path d="M285.186 295.634V331.567C285.186 334.821 282.518 337.482 279.257 337.482H264.879C268.14 337.482 270.808 334.821 270.808 331.567V295.634C270.808 292.38 268.14 289.719 264.879 289.719H279.257C282.518 289.793 285.186 292.38 285.186 295.634Z" fill="#FFCA2F"/>
<path d="M270.735 295.634V331.567C270.735 334.821 268.067 337.482 264.806 337.482H221.671C218.41 337.482 215.742 334.821 215.742 331.567V295.634C215.742 292.38 218.41 289.719 221.671 289.719H264.806C268.141 289.793 270.735 292.38 270.735 295.634Z" fill="#FFCE3F"/>
<path d="M249.685 289.789V300.51C249.685 301.693 248.722 302.58 247.61 302.58H238.938C237.753 302.58 236.863 301.619 236.863 300.51V289.789H249.685Z" fill="#FFCA2F"/>
<path d="M238.568 221.472V266.056C238.568 270.123 235.307 273.376 231.231 273.376H213.295C217.371 273.376 220.632 270.123 220.632 266.056V221.472C220.632 217.406 217.371 214.152 213.295 214.152H231.231C235.307 214.152 238.568 217.48 238.568 221.472Z" fill="#EF6054"/>
<path d="M220.707 221.472V266.056C220.707 270.123 217.446 273.376 213.37 273.376H159.785C155.708 273.376 152.447 270.123 152.447 266.056V221.472C152.447 217.406 155.708 214.152 159.785 214.152H213.37C217.372 214.152 220.707 217.48 220.707 221.472Z" fill="#FF847A"/>
<path d="M192.395 214.152V225.465C192.395 226.648 191.432 227.683 190.172 227.683H181.055C179.87 227.683 178.832 226.722 178.832 225.465V214.152H192.395Z" fill="#EF6054"/>
<path d="M194.693 273.453V288.684C194.693 290.311 193.359 291.642 191.729 291.642H179.426C177.795 291.642 176.461 290.311 176.461 288.684V273.453H194.693Z" fill="#CE2719"/>
<path d="M239.976 326.39V330.604C239.976 331.27 239.458 331.787 238.79 331.787H224.264C223.597 331.787 223.078 331.27 223.078 330.604V326.39C223.078 325.725 223.597 325.207 224.264 325.207H238.79C239.458 325.281 239.976 325.799 239.976 326.39Z" fill="#FFCA2F"/>
<path d="M177.424 323.728V329.274C177.424 330.087 176.757 330.826 175.867 330.826H156.597C155.782 330.826 155.041 330.161 155.041 329.274V323.728C155.041 322.915 155.708 322.176 156.597 322.176H175.867C176.683 322.176 177.424 322.915 177.424 323.728Z" fill="#CE2719"/>
<path d="M177.573 262.139V266.871C177.573 267.611 176.98 268.202 176.239 268.202H159.711C158.97 268.202 158.377 267.611 158.377 266.871V262.139C158.377 261.4 158.97 260.809 159.711 260.809H176.239C176.98 260.809 177.573 261.4 177.573 262.139Z" fill="#EF6054"/>
<path d="M379.311 330.754L377.755 346.429L377.31 350.791L363.154 352.196L364.192 338.295L364.785 330.754H379.311Z" fill="#FF847A"/>
<path d="M379.313 330.754L377.756 346.355C377.015 345.985 376.422 345.393 376.274 344.58C376.052 343.471 376.719 342.362 377.163 341.327C377.682 340.218 378.127 338.961 378.275 337.778C378.423 337.113 378.349 336.225 377.682 335.93C377.163 335.634 376.496 336.003 375.978 336.299C372.494 338.369 368.196 339.109 364.193 338.295L364.786 330.754H379.313Z" fill="#F46256"/>
<path d="M378.422 343.544L377.755 357.149C377.755 357.814 377.162 358.332 376.495 358.332H341.216C341.216 358.332 337.881 355.596 346.256 353.674C354.631 351.751 359.374 342.287 364.34 340.217C369.232 338.147 371.677 348.424 371.677 348.424L371.9 347.463C372.419 344.949 374.42 342.953 376.94 342.287C377.681 342.065 378.422 342.731 378.422 343.544Z" fill="#EA4335"/>
<path d="M361.304 348.054C361.23 348.054 361.156 347.98 361.156 347.906V345.836C361.156 345.762 361.156 345.762 361.23 345.762H361.304L363.009 346.427C363.083 346.427 363.083 346.501 363.083 346.575C363.083 346.649 363.009 346.649 362.935 346.649L361.379 346.057V347.98C361.379 347.98 361.379 348.054 361.304 348.054Z" fill="white"/>
<path d="M356.188 350.792H356.114C356.04 350.718 356.04 350.644 356.114 350.644L363.081 344.063C363.155 343.989 363.229 343.989 363.229 344.063C363.303 344.137 363.303 344.211 363.229 344.211L356.262 350.792H356.188Z" fill="white"/>
<path d="M361.227 345.982C360.782 345.982 360.19 345.242 360.19 345.242C359.819 344.799 359.671 344.281 359.745 343.838C359.819 343.616 359.967 343.32 360.264 343.246C360.412 343.246 360.56 343.32 360.708 343.394C360.782 343.468 360.857 343.616 360.931 343.764C361.079 344.059 361.227 344.429 361.375 344.725C361.375 344.799 361.449 344.799 361.449 344.873C361.524 345.168 361.672 345.464 361.598 345.686C361.524 345.908 361.375 345.908 361.227 345.982ZM360.264 343.394C360.041 343.394 359.967 343.616 359.967 343.764C359.893 344.133 360.041 344.651 360.338 345.021C360.56 345.316 361.005 345.76 361.227 345.686C361.227 345.686 361.301 345.686 361.301 345.538C361.301 345.39 361.227 345.021 361.153 344.873C361.153 344.799 361.079 344.725 361.079 344.725C361.005 344.429 360.857 344.059 360.708 343.764C360.634 343.69 360.56 343.542 360.486 343.468C360.412 343.468 360.338 343.394 360.264 343.394ZM358.263 348.791C357.818 348.791 357.225 348.052 357.225 348.052C356.854 347.608 356.706 347.091 356.78 346.647C356.854 346.425 357.003 346.13 357.299 346.056C357.447 346.056 357.596 346.13 357.744 346.204C357.818 346.278 357.892 346.425 357.966 346.573C358.114 346.869 358.263 347.239 358.411 347.534C358.411 347.608 358.485 347.608 358.485 347.682C358.559 347.978 358.707 348.274 358.633 348.496C358.559 348.717 358.485 348.791 358.411 348.791H358.263ZM357.299 346.204C357.077 346.204 357.003 346.425 357.003 346.573C356.928 346.943 357.077 347.461 357.373 347.83C357.596 348.126 358.114 348.57 358.263 348.496C358.263 348.496 358.337 348.496 358.337 348.348C358.337 348.2 358.263 347.904 358.188 347.682C358.188 347.608 358.114 347.534 358.114 347.534C358.04 347.239 357.892 346.869 357.744 346.573C357.67 346.499 357.596 346.351 357.521 346.278C357.447 346.278 357.373 346.204 357.299 346.204Z" fill="white"/>
<path d="M358.34 350.788C358.266 350.788 358.192 350.714 358.192 350.64V348.57C358.192 348.496 358.192 348.496 358.266 348.496H358.34L360.045 349.162C360.119 349.162 360.119 349.235 360.119 349.309C360.119 349.383 360.045 349.383 359.97 349.383L358.414 348.792V350.714C358.414 350.714 358.414 350.788 358.34 350.788ZM343.888 354.263C338.625 356.112 341.219 358.256 341.219 358.256H376.498C377.165 358.256 377.684 357.738 377.758 357.073L377.906 354.263H343.888Z" fill="white"/>
<path d="M335.585 330.754L333.806 349.09L333.584 350.791L319.428 352.196L320.539 338L321.132 330.754H335.585Z" fill="#FF847A"/>
<path d="M335.584 330.754L333.806 349.016C332.916 348.425 332.175 347.538 332.027 346.429C331.805 345.393 332.175 344.284 332.546 343.323C332.916 342.288 333.361 341.327 333.361 340.218C333.361 339.183 332.842 338 331.805 337.63C330.693 337.186 329.507 337.852 328.395 338.295C326.839 338.887 325.134 339.109 323.43 338.813C322.54 338.665 321.503 338.369 320.539 337.926L321.132 330.754H335.584Z" fill="#F46256"/>
<path d="M334.695 343.544L334.028 357.149C334.028 357.814 333.435 358.332 332.768 358.332H297.49C297.49 358.332 294.154 355.596 302.529 353.674C310.904 351.751 315.648 342.287 320.613 340.217C325.505 338.147 327.951 348.424 327.951 348.424L328.173 347.463C328.692 344.949 330.693 342.953 333.213 342.287C333.954 342.065 334.769 342.731 334.695 343.544Z" fill="#EA4335"/>
<path d="M317.574 348.054C317.5 348.054 317.426 347.98 317.426 347.906V345.836C317.426 345.762 317.426 345.762 317.5 345.762H317.574L319.279 346.427C319.353 346.427 319.353 346.501 319.353 346.575C319.353 346.649 319.279 346.649 319.205 346.649L317.648 346.057V347.98C317.722 347.98 317.648 348.054 317.574 348.054Z" fill="white"/>
<path d="M312.536 350.792H312.462C312.388 350.718 312.388 350.644 312.462 350.644L319.429 344.063C319.503 343.989 319.577 343.989 319.577 344.063C319.651 344.137 319.651 344.211 319.577 344.211L312.61 350.792H312.536Z" fill="white"/>
<path d="M317.501 345.982C317.056 345.982 316.463 345.242 316.463 345.242C316.092 344.799 315.944 344.281 316.018 343.838C316.092 343.616 316.241 343.32 316.537 343.246C316.685 343.246 316.834 343.32 316.982 343.394C317.056 343.468 317.13 343.616 317.204 343.764C317.352 344.059 317.501 344.429 317.649 344.725C317.649 344.799 317.723 344.799 317.723 344.873C317.797 345.168 317.945 345.464 317.871 345.686C317.797 345.908 317.723 345.908 317.501 345.982C317.575 345.982 317.575 345.982 317.501 345.982ZM316.537 343.394C316.315 343.394 316.241 343.616 316.241 343.764C316.167 344.133 316.315 344.651 316.611 345.021C316.834 345.316 317.278 345.76 317.501 345.686C317.501 345.686 317.575 345.686 317.575 345.538C317.575 345.39 317.501 345.021 317.426 344.873C317.426 344.799 317.352 344.725 317.352 344.725C317.278 344.429 317.13 344.059 316.982 343.764C316.908 343.69 316.834 343.542 316.759 343.468C316.759 343.468 316.611 343.394 316.537 343.394ZM314.536 348.791C314.091 348.791 313.498 348.052 313.498 348.052C313.128 347.608 312.98 347.091 313.054 346.647C313.128 346.425 313.276 346.13 313.572 346.056C313.721 346.056 313.869 346.13 314.017 346.204C314.091 346.278 314.165 346.425 314.24 346.573C314.388 346.869 314.536 347.239 314.684 347.534C314.684 347.608 314.758 347.608 314.758 347.682C314.832 347.978 314.981 348.274 314.907 348.496C314.832 348.717 314.758 348.791 314.684 348.791H314.536ZM313.572 346.204C313.35 346.204 313.276 346.425 313.276 346.573C313.202 346.943 313.35 347.461 313.647 347.83C313.869 348.126 314.388 348.57 314.536 348.496C314.536 348.496 314.61 348.496 314.61 348.348C314.61 348.2 314.536 347.904 314.462 347.682C314.462 347.608 314.388 347.534 314.388 347.534C314.314 347.239 314.165 346.869 314.017 346.573C313.943 346.499 313.869 346.351 313.795 346.278C313.721 346.278 313.647 346.204 313.572 346.204Z" fill="white"/>
<path d="M314.61 350.788C314.535 350.788 314.461 350.714 314.461 350.64V348.57C314.461 348.496 314.461 348.496 314.535 348.496H314.61L316.314 349.162C316.388 349.162 316.388 349.235 316.388 349.309C316.388 349.383 316.314 349.383 316.24 349.383L314.684 348.792V350.714C314.758 350.714 314.684 350.788 314.61 350.788ZM300.231 354.263C294.969 356.112 297.563 358.256 297.563 358.256H332.842C333.509 358.256 334.028 357.738 334.102 357.073L334.25 354.263H300.231Z" fill="white"/>
<path d="M380.128 333.119C375.903 336.668 369.529 337.703 362.636 336.89L340.328 235.448L336.993 334.746C329.655 338.812 323.356 339.034 318.464 332.084L315.055 197.074L320.465 197.148L362.711 197.888L364.267 209.865L380.128 333.119Z" fill="#580E08"/>
<path d="M380.128 333.119C375.903 336.668 369.529 337.703 362.636 336.89L340.328 235.448L336.993 334.746C329.655 338.812 323.356 339.034 318.464 332.084L315.055 197.074L320.465 197.148L362.711 197.888L364.267 209.865L380.128 333.119Z" fill="#580E08"/>
<path d="M318.464 330.754V332.085C323.43 339.035 329.656 338.813 336.993 334.746L337.141 330.754C331.36 333.415 325.06 332.972 318.464 330.754ZM361.377 331.197L362.637 336.891C369.529 337.63 375.903 336.669 380.128 333.12L379.387 327.353C374.273 330.975 368.195 331.937 361.377 331.197ZM364.267 209.94C336.845 212.676 316.611 198.775 316.611 198.775C316.611 198.775 318.094 198.184 320.539 197.223L362.785 197.962L364.267 209.94Z" fill="#043D13"/>
<path d="M374.94 137.556C373.087 153.009 367.899 172.75 364.712 197.963C363.897 204.322 333.658 204.322 315.277 199.59C314.388 199.368 313.795 198.628 313.647 197.815C311.942 188.425 303.197 136.003 324.838 132.307C329.359 131.567 343.219 130.754 343.293 130.754C347.147 130.754 353.076 131.05 358.783 131.789C367.38 132.75 375.31 134.673 374.94 137.556Z" fill="#5293FF"/>
<path d="M340.03 142.877C340.03 142.877 310.829 182.804 290.076 177.924C269.843 173.192 279.626 114.781 279.626 114.781L295.932 114.855L300.008 149.532C300.008 149.532 317.202 132.748 325.133 132.157C330.321 131.713 340.03 142.877 340.03 142.877Z" fill="#5293FF"/>
<path d="M317.873 168.239C317.65 168.239 317.502 168.018 317.502 167.87L319.355 140.143C319.355 139.921 319.577 139.773 319.725 139.773C319.948 139.773 320.096 139.995 320.096 140.143L318.243 167.87C318.243 168.091 318.021 168.239 317.873 168.239Z" fill="#4285F4"/>
<path d="M296.008 114.929C296.008 115.594 292.229 115.076 287.856 116.038C281.63 117.442 279.703 115.52 279.703 114.929C279.703 114.263 283.335 113.82 287.856 113.82C292.377 113.746 296.008 114.263 296.008 114.929Z" fill="#580E08"/>
<path d="M295.859 115.074C295.044 115.37 291.709 115.148 287.855 116.036C286.595 116.331 285.557 116.479 284.668 116.479C284.371 116.257 284.149 115.962 283.927 115.74C283.482 115.222 283.111 114.557 282.741 113.965C281.258 111.082 281.258 107.829 281.258 107.829C281.258 107.829 280.888 108.864 279.406 109.233C277.849 109.603 280.221 102.579 280.814 100.878C281.407 99.1779 283.259 99.9912 283.259 99.9912C284.149 96.2943 286.817 98.5864 286.817 98.5864C287.706 96.3683 289.856 97.4034 289.856 97.4034C290.152 90.0096 295.414 85.7952 293.265 93.3368C291.857 98.2906 293.413 106.202 294.673 111.008C295.044 112.561 295.414 113.744 295.637 114.483C295.785 114.779 295.785 115 295.859 115.074Z" fill="#FF847A"/>
<path d="M285.039 113.67C284.965 113.67 284.965 113.67 284.891 113.596C282.742 110.86 284.298 108.05 284.669 107.385C280.889 104.797 280.741 103.023 280.815 102.283C280.889 101.692 281.26 101.322 281.778 101.174C282.223 101.1 282.594 101.174 282.89 101.544C283.928 102.801 288.226 104.132 288.301 104.206C288.375 104.206 288.449 104.28 288.375 104.427C288.375 104.501 288.301 104.575 288.152 104.501C288.004 104.427 283.631 103.097 282.594 101.766C282.371 101.544 282.149 101.47 281.853 101.544C281.556 101.618 281.186 101.914 281.111 102.431C281.037 103.023 281.185 104.797 284.965 107.311L285.039 107.385V107.533C284.965 107.681 282.89 110.638 285.188 113.522C285.262 113.596 285.262 113.67 285.188 113.744C285.114 113.67 285.114 113.67 285.039 113.67Z" fill="#F9695D"/>
<path d="M281.258 107.979C281.183 107.979 281.109 107.905 281.109 107.831L281.554 105.687C281.554 105.613 281.628 105.539 281.702 105.539C281.776 105.539 281.851 105.613 281.851 105.687L281.406 107.831C281.406 107.979 281.332 107.979 281.258 107.979ZM288.299 102.73C288.224 102.73 288.15 102.656 288.15 102.582C288.373 100.659 288.891 98.9589 289.781 97.4802C289.855 97.4062 289.929 97.4063 290.003 97.4063C290.077 97.4802 290.077 97.5541 290.077 97.6281C289.262 99.1068 288.743 100.807 288.521 102.656C288.447 102.656 288.373 102.73 288.299 102.73ZM285.853 102.064C285.704 102.064 285.704 101.99 285.704 101.842L286.668 98.5892C286.668 98.5153 286.742 98.4414 286.816 98.5153C286.89 98.5153 286.964 98.5892 286.89 98.6632L285.927 101.916C286.001 101.99 285.927 102.064 285.853 102.064Z" fill="#F9695D"/>
<path d="M323.43 150.49L331.805 197.293C332.101 199.141 330.693 200.842 328.84 200.842H295.637C294.155 200.842 292.895 199.807 292.672 198.328L284.297 151.526C284.001 149.677 285.409 147.977 287.262 147.977H320.465C321.948 147.977 323.208 149.012 323.43 150.49Z" fill="#3C5D94"/>
<path d="M373.681 135.484C373.681 135.484 410.739 168.313 403.92 188.424C397.25 208.017 340.107 192.416 340.107 192.416L341.071 176.594L379.314 179.403C379.314 179.403 366.715 164.911 365.825 158.923C364.788 152.416 373.681 135.484 373.681 135.484Z" fill="#5293FF"/>
<path d="M365.971 155.668C365.674 155.594 365.6 155.446 365.6 155.224C366.341 150.936 368.639 145.316 370.418 141.324C370.492 141.102 370.714 141.028 370.937 141.102C371.159 141.176 371.233 141.398 371.159 141.62C369.38 145.538 367.083 151.084 366.416 155.298C366.267 155.52 366.119 155.668 365.971 155.668ZM340.031 192.784C339.957 192.784 339.882 192.784 339.882 192.71C339.734 192.636 339.66 192.415 339.734 192.193C342.328 187.461 342.625 182.211 340.698 176.666C340.624 176.518 340.698 176.444 340.772 176.296C340.846 176.222 340.92 176.148 341.068 176.148L378.496 178.884L368.194 165.649C368.046 165.501 368.12 165.279 368.268 165.132C368.417 164.984 368.639 165.058 368.787 165.206L379.608 179.106C379.83 179.328 379.608 179.697 379.312 179.697L341.587 176.962C343.44 182.507 342.995 187.756 340.401 192.562C340.327 192.71 340.179 192.784 340.031 192.784Z" fill="#4285F4"/>
<path d="M368.491 165.504L367.824 177.482L369.974 167.426L368.491 165.504Z" fill="#4285F4"/>
<path d="M342.182 184.501C341.886 188.863 340.996 192.412 340.033 192.412C339.069 192.412 338.55 188.863 338.847 184.501C339.143 180.139 340.107 176.59 340.996 176.59C341.886 176.59 342.479 180.139 342.182 184.501Z" fill="#073012"/>
<path d="M340.328 235.45L339.217 268.943L334.992 228.647C336.252 228.721 337.586 228.721 338.846 228.352L340.328 235.45Z" fill="#043D13"/>
<path d="M336.103 229.091C333.213 229.091 330.471 228.204 330.322 228.13C330.1 228.056 330.026 227.834 330.1 227.686C330.174 227.464 330.397 227.39 330.545 227.464C330.619 227.464 337.808 229.756 340.995 226.873C341.143 226.725 341.366 226.725 341.514 226.873C341.662 227.02 341.662 227.242 341.514 227.39C340.031 228.721 338.03 229.091 336.103 229.091Z" fill="#3C5D94"/>
<path d="M336.103 229.091C333.213 229.091 330.471 228.204 330.322 228.13C330.1 228.056 330.026 227.834 330.1 227.686C330.174 227.464 330.397 227.39 330.545 227.464C330.619 227.464 337.808 229.756 340.995 226.873C341.143 226.725 341.366 226.725 341.514 226.873C341.662 227.02 341.662 227.242 341.514 227.39C340.031 228.721 338.03 229.091 336.103 229.091Z" fill="#3C5D94"/>
<path d="M334.992 229.013C332.472 228.865 330.397 228.199 330.322 228.125C330.1 228.051 330.026 227.83 330.1 227.682C330.174 227.46 330.397 227.386 330.545 227.46C330.545 227.46 332.62 228.125 335.066 228.273C336.474 228.347 337.734 228.273 338.772 227.978C339.661 227.756 340.476 227.312 340.995 226.794C341.143 226.647 341.366 226.647 341.514 226.794C341.662 226.942 341.662 227.164 341.514 227.312C339.809 228.939 337.215 229.16 334.992 229.013Z" fill="#3C5D94"/>
<path d="M334.99 229.016C332.47 228.868 330.395 228.203 330.321 228.129C330.099 228.055 330.024 227.833 330.099 227.685C330.173 227.463 330.395 227.389 330.543 227.463C330.543 227.463 332.618 228.129 335.064 228.277C336.472 228.35 337.732 228.277 338.77 227.981C339.659 227.759 340.475 227.315 340.993 226.798C341.142 226.65 341.364 226.65 341.512 226.798C341.661 226.946 341.661 227.168 341.512 227.315C339.808 228.942 337.214 229.164 334.99 229.016ZM337.065 224.58C334.101 217.777 335.138 206.465 335.138 206.021C335.138 205.8 335.361 205.652 335.509 205.652C335.731 205.652 335.88 205.874 335.88 206.021C335.88 206.169 334.842 217.63 337.732 224.21C337.807 224.432 337.732 224.58 337.51 224.728C337.362 224.802 337.14 224.728 337.065 224.58ZM333.286 224.58C330.321 217.777 331.359 206.465 331.359 206.021C331.359 205.8 331.581 205.652 331.729 205.652C331.951 205.652 332.1 205.874 332.1 206.021C332.1 206.169 331.062 217.63 333.953 224.21C334.027 224.432 333.953 224.58 333.73 224.728C333.582 224.802 333.36 224.728 333.286 224.58ZM361.375 213.193C354.705 210.679 355.298 203.877 355.298 203.803C355.298 203.581 355.52 203.434 355.668 203.508C355.891 203.508 356.039 203.729 355.965 203.877C355.965 204.099 355.446 210.162 361.523 212.454C361.746 212.528 361.82 212.75 361.746 212.898C361.82 213.193 361.597 213.267 361.375 213.193ZM316.98 212.676C316.906 212.528 316.98 212.306 317.128 212.158C322.613 209.275 323.132 203.877 323.132 203.877C323.132 203.655 323.354 203.508 323.502 203.508C323.725 203.508 323.873 203.729 323.873 203.877C323.873 204.099 323.354 209.718 317.499 212.75C317.277 212.898 317.054 212.824 316.98 212.676Z" fill="#043D13"/>
<path d="M358.856 132.006V132.154C358.856 136.886 353.668 139.548 344.255 139.548C334.842 139.548 329.654 136.96 329.654 132.154V131.562C335.509 131.045 343.291 130.527 343.291 130.527C347.145 130.527 353.075 130.823 358.781 131.562L358.856 132.006Z" fill="white"/>
<path d="M354.483 132.157C354.483 136.224 333.954 136.224 333.954 132.157L334.695 125.281L335.139 121.362C335.139 121.362 329.877 120.697 329.433 117C329.21 115.521 329.358 113.673 329.729 111.677C329.951 110.198 330.322 108.645 330.767 107.166C332.545 100.734 335.436 94.4492 335.436 94.4492L353.149 96.5195L353.001 110.494L354.483 132.157Z" fill="#FF847A"/>
<path d="M341.292 121.066C341.292 121.066 341.44 125.577 334.77 125.281L335.214 121.362C337.215 121.584 339.291 121.51 341.292 121.066Z" fill="#F9695D"/>
<path d="M342.181 184.504C342.107 185.687 341.959 186.796 341.811 187.757H339.291C339.143 187.831 338.994 187.905 338.92 187.979C338.846 187.979 338.846 188.053 338.772 188.053C332.398 191.232 327.803 187.388 327.803 187.388C327.803 187.388 317.056 187.092 317.056 185.909C317.056 184.726 325.728 184.504 325.728 184.504C325.728 184.504 317.872 184.43 315.426 183.839C312.98 183.247 315.278 181.99 315.278 181.99C313.351 181.768 313.869 180.068 314.981 180.068C315.648 180.068 326.024 179.55 326.024 179.55C315.203 178.515 316.463 177.036 317.427 176.889C318.39 176.667 328.099 177.11 328.099 177.11L327.432 173.266C328.248 173.487 328.989 173.783 329.804 174.079C333.139 175.41 336.03 177.11 338.179 179.402H342.033C342.255 180.807 342.329 182.582 342.181 184.504Z" fill="#FF847A"/>
<path d="M315.351 182.136C315.277 182.136 315.203 182.062 315.203 181.988C315.203 181.914 315.277 181.841 315.351 181.841L324.171 181.619C324.245 181.619 324.319 181.693 324.319 181.767C324.319 181.841 324.245 181.914 324.171 181.914L315.351 182.136ZM328.173 184.207C328.099 184.207 328.025 184.133 328.025 184.133C326.913 180.879 329.137 178.809 329.137 178.735C329.211 178.661 329.285 178.661 329.359 178.735C329.433 178.809 329.433 178.883 329.359 178.957C329.359 178.957 327.284 180.953 328.321 183.985C328.396 184.059 328.321 184.133 328.173 184.207C328.247 184.207 328.247 184.207 328.173 184.207Z" fill="#F9695D"/>
<path d="M390.061 184.281C385.984 180.066 379.388 179.771 379.314 179.771C379.092 179.771 378.943 179.623 378.943 179.401C378.943 179.179 379.092 179.031 379.314 179.031C379.61 179.031 386.281 179.401 390.579 183.763C390.728 183.911 390.728 184.133 390.579 184.281C390.431 184.429 390.135 184.429 390.061 184.281Z" fill="#4285F4"/>
<path d="M342.18 184.503C342.106 185.686 341.958 186.795 341.809 187.757H339.289C339.141 187.83 338.993 187.904 338.919 187.978L338.697 187.313C338.548 186.278 338.845 185.243 338.622 184.208C338.4 183.172 337.659 182.359 336.844 181.768C336.028 181.102 335.139 180.659 334.324 179.993C332.916 178.884 331.804 177.479 330.84 176.001C330.618 175.631 329.803 174.67 329.803 174.078C333.138 175.409 336.028 177.11 338.178 179.402H342.032C342.254 180.806 342.328 182.581 342.18 184.503Z" fill="#F9695D"/>
<path d="M359.153 109.234C359.153 109.234 359.227 107.977 358.857 106.646C358.486 105.315 357.745 103.91 356.04 103.689C352.409 103.171 352.557 109.308 352.557 109.308V110.343C352.112 108.642 351.075 105.981 352.557 104.502C345.145 104.058 350.482 99.0306 350.482 99.0306C335.436 103.097 334.695 97.0343 334.695 97.0343C334.028 97.5519 333.435 99.1785 332.991 100.435C331.879 99.77 330.99 98.9567 330.322 98.1434C326.469 93.1156 330.915 86.3134 333.954 86.3873C336.845 86.4613 338.475 91.4151 341.069 91.5629C344.182 91.7108 344.108 86.3873 352.779 87.2006C361.451 88.0139 359.153 95.1119 359.153 95.1119C366.046 95.7034 359.153 109.234 359.153 109.234Z" fill="#580E08"/>
<path d="M359.153 109.234C359.153 109.234 359.227 107.977 358.857 106.646C359.227 105.981 359.598 105.389 360.043 104.798L360.265 99.0306C360.265 98.5131 360.339 97.9955 360.191 97.4779C360.043 96.9604 359.672 96.4428 359.227 96.2949C358.709 96.1471 358.042 96.3689 357.893 96.8864C358.19 95.7774 358.56 94.5944 358.412 93.4853C358.264 92.3023 357.523 91.1933 356.411 90.8236C355.299 90.5278 354.113 91.0454 353.002 91.489C347.369 93.7811 340.55 92.9678 335.659 89.4188C334.992 88.9751 334.325 88.3836 333.51 88.3836C332.398 88.3836 331.657 89.4188 331.138 90.4539C330.026 92.8199 329.804 95.6295 330.397 98.1434C326.543 93.1156 330.99 86.3134 334.028 86.3873C336.919 86.4613 338.549 91.4151 341.143 91.5629C344.256 91.7108 344.182 86.3873 352.854 87.2006C361.525 88.0139 359.227 95.1119 359.227 95.1119C366.046 95.7034 359.153 109.234 359.153 109.234Z" fill="#043D13"/>
<path d="M352.559 104.801C350.187 104.653 348.779 104.061 348.409 102.952C347.964 101.843 348.779 100.512 349.446 99.6252C341.59 101.548 337.884 100.586 336.106 99.4034C334.549 98.3683 334.401 97.0374 334.401 97.0374C334.401 96.8156 334.549 96.6677 334.697 96.5938C334.92 96.5938 335.068 96.7416 335.142 96.8895C335.142 96.9634 335.29 97.9246 336.55 98.8119C338.255 99.9209 342.109 100.882 350.41 98.5901C350.558 98.5161 350.78 98.5901 350.854 98.7379C350.928 98.8858 350.929 99.1076 350.78 99.1816C350.187 99.7731 348.705 101.474 349.076 102.657C349.372 103.47 350.558 103.914 352.559 104.061C352.781 104.061 352.93 104.283 352.93 104.431C352.93 104.653 352.781 104.801 352.559 104.801ZM335.142 105.762C335.216 106.28 334.846 106.723 334.327 106.723C333.808 106.723 333.363 106.427 333.363 105.91C333.363 105.392 333.66 104.949 334.179 104.949C334.697 104.949 335.142 105.318 335.142 105.762ZM343.369 108.128C343.443 108.646 343.072 109.089 342.554 109.089C342.035 109.163 341.59 108.793 341.59 108.276C341.516 107.758 341.887 107.315 342.405 107.315C342.85 107.241 343.295 107.61 343.369 108.128ZM345.889 106.649C345.963 106.871 345.815 107.093 345.666 107.093C343.962 105.984 343.072 105.688 342.035 105.688C341.442 105.688 341.071 104.875 341.59 104.579L341.664 104.505C342.85 104.135 345.666 105.466 345.889 106.649ZM332.919 102.657C332.77 102.804 332.696 103.1 332.844 103.1C334.846 103.174 335.809 103.47 336.624 103.987C337.143 104.357 337.884 103.84 337.662 103.322C337.662 103.248 337.662 103.248 337.588 103.248C336.847 102.361 333.808 101.843 332.919 102.657Z" fill="#043D13"/>
<path d="M335.733 112.857C335.511 112.784 335.363 112.784 335.214 112.71C333.436 112.266 333.287 111.231 334.029 110.418C334.77 109.678 335.807 109.604 336.623 109.013C337.216 108.569 337.512 107.83 337.808 107.238L338.253 106.277C338.253 106.203 338.401 106.203 338.475 106.203C338.55 106.203 338.55 106.351 338.55 106.425L338.105 107.386C337.808 108.052 337.512 108.791 336.845 109.308C336.104 109.9 334.918 110.048 334.325 110.639C333.732 111.231 333.806 112.044 335.363 112.414C335.511 112.488 335.659 112.488 335.881 112.562C335.956 112.562 336.03 112.636 336.03 112.71C335.881 112.784 335.807 112.857 335.733 112.857ZM334.918 117.368C333.287 117.368 332.546 115.963 332.546 115.963C332.472 115.889 332.546 115.815 332.62 115.741C332.695 115.667 332.769 115.741 332.843 115.815C332.917 115.889 333.955 117.811 336.326 116.776C336.4 116.776 336.474 116.776 336.549 116.85C336.549 116.924 336.549 116.998 336.474 117.072C335.807 117.22 335.363 117.368 334.918 117.368Z" fill="#F9695D"/>
<path d="M352.852 105.837C353.223 104.506 353.89 103.767 355.15 103.545C356.335 103.397 357.595 103.914 358.411 104.728C359.893 106.28 359.893 108.794 358.559 110.495C357.225 112.195 354.112 113.896 353.074 113.083C351.518 112.048 352.333 107.611 352.852 105.837Z" fill="#FF847A"/>
<path d="M354.557 109.53C354.483 109.53 354.409 109.456 354.409 109.382C354.261 106.869 356.706 106.203 356.781 106.203C356.855 106.203 356.929 106.203 356.929 106.277C356.929 106.351 356.929 106.425 356.855 106.425C356.781 106.425 354.631 107.09 354.705 109.308C354.705 109.456 354.631 109.456 354.557 109.53Z" fill="#F9695D"/>
<path d="M354.558 109.533C354.484 109.533 354.484 109.533 354.558 109.533C354.484 109.533 354.41 109.459 354.41 109.386C354.41 109.386 354.484 108.646 355.077 108.276C355.522 107.981 356.115 107.981 356.93 108.276C357.004 108.276 357.078 108.424 357.004 108.498C357.004 108.572 356.856 108.646 356.782 108.572C356.115 108.35 355.596 108.276 355.225 108.572C354.781 108.868 354.707 109.46 354.707 109.46C354.633 109.46 354.633 109.533 354.558 109.533Z" fill="#F9695D"/>
<path opacity="0.3" d="M344.479 114.188C344.109 115.371 342.626 116.037 341.218 115.593C339.81 115.15 338.995 113.819 339.365 112.562C339.736 111.379 341.218 110.713 342.626 111.157C344.035 111.601 344.85 112.931 344.479 114.188ZM332.917 109.974C332.695 111.231 331.361 112.044 329.879 111.748H329.73C329.953 110.27 330.323 108.717 330.768 107.238C332.176 107.534 333.14 108.717 332.917 109.974Z" fill="#EA4335"/>
<path d="M342.33 120.253C342.33 120.179 342.33 120.106 342.404 120.106C348.63 118.479 350.927 114.117 350.927 114.043C351.002 113.969 351.076 113.969 351.15 113.969C351.224 114.043 351.224 114.117 351.224 114.191C351.224 114.265 348.852 118.701 342.478 120.401C342.404 120.401 342.33 120.327 342.33 120.253Z" fill="#F9695D"/>
<path d="M335.882 99.1787C335.808 99.1787 335.734 99.1787 335.66 99.1048C333.437 97.4781 334.104 94.2249 334.104 94.077C334.178 93.8552 334.326 93.7812 334.548 93.7812C334.771 93.8552 334.845 94.0031 334.845 94.2249C334.845 94.2249 334.326 97.1824 336.105 98.5133C336.253 98.6611 336.327 98.8829 336.179 99.0308C336.105 99.1048 336.031 99.1787 335.882 99.1787Z" fill="#043D13"/>
<path d="M349.148 51.7864C349.964 60.8807 343.886 69.3095 334.992 71.3058C331.138 72.1931 327.358 71.8234 324.023 70.4925L320.688 72.8585C320.466 73.0064 320.169 72.8585 320.169 72.6367L320.318 68.5702C316.464 65.9084 313.573 61.694 312.758 56.6662C310.979 46.6847 317.649 37.1467 327.655 35.3722C338.105 33.4499 348.111 40.9176 349.148 51.7864Z" fill="white"/>
<path d="M320.465 73.0823C320.391 73.0823 320.317 73.0823 320.243 73.0084C320.094 72.9344 319.946 72.7126 320.02 72.5647L320.169 68.5721C316.166 65.7625 313.424 61.4741 312.609 56.6682C310.83 46.6127 317.575 36.9269 327.654 35.1524C338.104 33.304 348.332 40.6238 349.37 51.7883C350.259 60.9566 344.034 69.4594 335.066 71.5296C331.36 72.3429 327.58 72.1211 324.097 70.7163L320.836 73.0084C320.613 73.0084 320.539 73.0823 320.465 73.0823ZM327.654 35.5221C317.797 37.2966 311.127 46.6866 312.905 56.5943C313.721 61.4002 316.389 65.5407 320.391 68.3503C320.465 68.3503 320.465 68.4242 320.465 68.4982L320.317 72.5647C320.317 72.6387 320.391 72.6387 320.391 72.6387H320.539L323.874 70.2727C323.948 70.2727 324.023 70.1987 324.023 70.2727C327.432 71.6775 331.212 71.9732 334.843 71.086C343.663 69.0897 349.74 60.7347 348.851 51.7144C347.887 40.8456 337.808 33.6736 327.654 35.5221Z" fill="#1E7034"/>
<path d="M342.848 53.4885C342.848 60.2907 337.364 65.7621 330.545 65.7621C323.727 65.7621 318.242 60.2907 318.242 53.4885C318.242 46.6862 323.727 41.2148 330.545 41.2148C337.29 41.2148 342.848 46.6862 342.848 53.4885Z" fill="#34A853"/>
<path d="M336.476 49.0512L330.176 57.7019C329.954 57.9976 329.583 57.9976 329.361 57.7019L325.581 52.0087C325.284 51.5651 325.803 51.0475 326.248 51.2693L329.731 53.1178L335.809 48.3858C336.253 48.0161 336.772 48.6076 336.476 49.0512ZM311.425 146.057L312.092 149.458C312.24 150.198 311.647 150.863 310.906 150.863H294.897C294.304 150.863 293.86 150.493 293.711 149.902L293.044 146.501C292.896 145.761 293.489 145.096 294.23 145.096H310.239C310.832 145.096 311.277 145.466 311.425 146.057Z" fill="white"/>
<path d="M73.2918 72.1933L69.9566 67.9788H55.8006C54.2442 67.9788 52.9102 66.7219 52.9102 65.0953V36.5554C52.9102 35.0027 54.1701 33.6719 55.8006 33.6719H92.4875C94.0439 33.6719 95.378 34.9288 95.378 36.5554V65.0953C95.378 66.648 94.118 67.9788 92.4875 67.9788H78.3316L74.9964 72.1933C74.5517 72.7108 73.7364 72.7108 73.2918 72.1933ZM55.8006 34.1155C54.3924 34.1155 53.2807 35.2246 53.2807 36.6294V65.1692C53.2807 66.574 54.3924 67.6831 55.8006 67.6831H70.0307C70.1048 67.6831 70.1048 67.6831 70.1789 67.757L73.5882 72.0454C73.8847 72.4151 74.4035 72.4151 74.6999 72.0454L78.1092 67.757C78.1092 67.6831 78.1833 67.6831 78.2575 67.6831H92.4875C93.8957 67.6831 95.0074 66.574 95.0074 65.1692V36.6294C95.0074 35.2246 93.8957 34.1155 92.4875 34.1155H55.8006Z" fill="#1E7034"/>
<path d="M74.1063 39.1406C69.0664 39.1406 64.916 43.2072 64.916 48.3089C64.916 51.71 69.0665 57.6989 71.8087 61.2479C72.9204 62.7267 75.218 62.7267 76.4038 61.2479C79.1461 57.6989 83.2965 51.71 83.2965 48.3089C83.2965 43.2072 79.1461 39.1406 74.1063 39.1406ZM74.1063 52.4494C71.7346 52.4494 69.8076 50.527 69.8076 48.161C69.8076 45.795 71.7346 43.8726 74.1063 43.8726C76.4779 43.8726 78.4049 45.795 78.4049 48.161C78.479 50.527 76.5521 52.4494 74.1063 52.4494Z" fill="#FF7569"/>
<path d="M74.1084 41.8047C70.625 41.8047 67.8086 44.6143 67.8086 48.0894C67.8086 51.5644 70.625 54.3741 74.1084 54.3741C77.5918 54.3741 80.4081 51.5644 80.4081 48.0894C80.4822 44.6143 77.5918 41.8047 74.1084 41.8047ZM74.1084 52.4517C71.7367 52.4517 69.8097 50.5293 69.8097 48.1633C69.8097 45.7973 71.7367 43.8749 74.1084 43.8749C76.48 43.8749 78.407 45.7973 78.407 48.1633C78.4811 50.5293 76.5542 52.4517 74.1084 52.4517Z" fill="#EA4335"/>
<path d="M114.871 150.199C114.797 150.199 114.723 150.199 114.649 150.125L106.57 143.249C106.422 143.101 106.422 142.879 106.496 142.731C106.57 142.583 106.867 142.583 107.015 142.657L114.871 149.386L139.032 133.045C139.181 132.898 139.403 132.972 139.551 133.119C139.699 133.267 139.625 133.489 139.477 133.637L115.093 150.125C115.019 150.199 114.945 150.199 114.871 150.199Z" fill="#FBBC05"/>
<path d="M115.612 170.013H115.464C115.241 169.939 115.167 169.717 115.241 169.569C118.651 160.623 114.5 150.346 114.426 150.198C114.352 149.976 114.426 149.828 114.648 149.68C114.871 149.606 115.019 149.68 115.167 149.902C115.241 149.976 119.466 160.549 115.982 169.791C115.908 169.865 115.76 170.013 115.612 170.013ZM53.8 177.259C53.7259 177.259 53.6518 177.259 53.5777 177.185C53.4295 177.111 53.3554 176.889 53.4295 176.667C59.3587 166.39 70.0312 166.094 70.1794 166.094C70.4018 166.094 70.55 166.242 70.55 166.464C70.55 166.686 70.4018 166.834 70.1794 166.834C70.1053 166.834 59.8033 167.129 54.0965 177.037C54.0224 177.185 53.8742 177.259 53.8 177.259Z" fill="#FBBC05"/>
<path d="M84.7044 96.0763C84.5562 95.7066 84.4079 95.3369 84.1115 95.1151C83.5927 94.4497 82.7774 94.0061 81.9621 94.0061C81.3692 93.0449 81.2951 91.8619 81.2951 90.6789C81.221 89.5698 81.221 88.3868 80.7763 87.3517C80.3316 86.3166 79.3681 85.4293 78.2564 85.4293C77.2929 85.4293 76.5518 86.0948 75.8106 86.6863C74.0319 88.165 72.2531 89.5698 70.4743 91.0486C70.919 89.348 70.3261 87.4256 69.0662 86.1687C67.8062 84.9118 65.9533 84.3202 64.1746 84.5421C62.4699 84.7639 60.8394 85.799 59.95 87.3517C59.0606 88.8304 58.9124 90.7528 59.6536 92.3794C58.1713 91.5661 56.1702 92.3794 55.2808 93.8582C54.3914 95.3369 54.4655 97.1854 54.8361 98.812C55.2067 100.439 55.9478 101.991 56.3184 103.692C56.3925 104.062 56.4666 104.579 56.3184 104.949C54.3173 100.66 50.6857 91.0486 58.616 90.9007C58.616 90.9007 56.7631 84.3203 63.9522 83.6548C71.1414 82.9894 70.919 89.2741 70.919 89.2741C70.919 89.2741 74.5507 84.4681 77.4411 84.1724C83.3703 83.5809 82.1104 93.4146 82.1104 93.4146C82.1104 93.4146 85.8161 92.7491 84.7044 96.0763Z" fill="#043D13"/>
<path d="M65.659 98.5158H65.5848C63.4355 97.9982 62.2497 95.6322 62.1756 95.5583C62.1014 95.4104 62.1756 95.1886 62.3238 95.0407C62.472 94.9668 62.6944 95.0407 62.8426 95.1886C62.8426 95.1886 63.9543 97.3328 65.7331 97.7764C65.9554 97.8503 66.0295 97.9982 66.0295 98.22C65.9554 98.3679 65.8072 98.5158 65.659 98.5158Z" fill="#043D13"/>
<path opacity="0.3" d="M74.0321 106.869C74.5509 106.943 75.1439 107.165 75.3662 107.609C75.5144 107.904 75.3662 108.274 75.218 108.57C74.9956 108.866 74.6992 109.014 74.4027 109.161C73.1427 109.827 71.5122 109.827 70.2523 109.161C69.6593 108.866 68.9182 107.904 69.7335 107.387C70.0299 107.239 70.3264 107.165 70.6228 107.091C71.1416 106.943 71.6604 106.869 72.1793 106.795C72.7722 106.795 73.4392 106.795 74.0321 106.869ZM84.3341 108.2C83.5188 108.274 82.6294 108.126 81.8883 107.757C81.2954 107.461 80.5542 106.5 81.3695 105.982C81.666 105.834 81.9624 105.76 82.2589 105.686C82.7777 105.538 83.2965 105.465 83.8153 105.391H83.8894C84.0376 106.352 84.1859 107.313 84.3341 108.2Z" fill="#EA4335"/>
<path d="M64.9923 140.659C64.8441 140.659 64.6958 140.511 64.6217 140.363C62.1759 127.424 50.2434 126.61 50.0952 126.61C49.8728 126.61 49.7246 126.389 49.7246 126.241C49.7246 126.093 49.8728 125.871 50.0952 125.871C50.2434 125.871 62.6947 126.758 65.2887 140.289C65.3629 140.437 65.2146 140.659 64.9923 140.659ZM100.123 144.947C99.9004 144.947 99.7522 144.799 99.7522 144.577C99.3075 138.071 91.6736 132.008 91.5995 131.934C91.4513 131.786 91.3772 131.564 91.5254 131.416C91.6736 131.269 91.896 131.195 92.0442 131.342C92.3407 131.564 100.049 137.627 100.493 144.503C100.493 144.799 100.345 144.947 100.123 144.947Z" fill="#FBBC05"/>
<path d="M74.9243 232.417L69.6622 219.773L75.2949 248.683L74.9243 232.417ZM97.1588 224.949C94.6389 224.949 92.5637 224.136 91.0814 222.435C87.1533 218.147 87.9686 209.866 87.9686 209.496L88.7097 209.57C88.7097 209.644 87.8944 217.851 91.6002 221.918C93.0084 223.47 94.9354 224.21 97.3811 224.21V224.949H97.1588ZM53.1345 230.79L52.5416 230.346C59.212 221.104 51.6522 213.415 51.5781 213.341L52.0969 212.823C52.171 212.897 60.1755 221.03 53.1345 230.79Z" fill="#043D13"/>
<path d="M67.9004 216.266L68.6014 216.026L70.381 221.201L69.6799 221.441L67.9004 216.266Z" fill="#043D13"/>
<path d="M125.275 343.879L126.366 342.991L126.601 343.277L125.51 344.165L125.275 343.879Z" fill="white"/>
<path d="M125.961 344.672L127.051 343.782L127.286 344.068L126.196 344.958L125.961 344.672Z" fill="white"/>
<path d="M126.664 345.316L127.754 344.427L127.989 344.713L126.899 345.603L126.664 345.316Z" fill="white"/>
<path d="M141.923 350.565C141.256 350.861 140.515 351.083 139.774 351.083C137.032 351.083 134.808 348.864 134.808 346.129V345.611H135.92C138.885 345.537 141.405 347.755 141.923 350.565ZM58.9147 358.624C56.0242 358.476 53.8008 356.11 53.8008 353.227C53.8008 352.339 54.0231 351.526 54.3937 350.787L55.3572 351.156C58.3218 352.339 59.8041 355.593 58.9147 358.624Z" fill="#FFCE3F"/>
<path d="M45.2852 345.684L47.2089 344.907L47.4869 345.593L45.5631 346.369L45.2852 345.684Z" fill="white"/>
<path d="M45.959 347.215L47.8827 346.438L48.1607 347.124L46.237 347.9L45.959 347.215Z" fill="white"/>
<path d="M46.543 348.637L48.4667 347.86L48.7447 348.546L46.8209 349.322L46.543 348.637Z" fill="white"/>
<path d="M67.2135 116.186H67.0653C62.989 113.154 62.1737 109.901 62.0996 109.753C62.0996 109.679 62.0996 109.531 62.2478 109.531C62.322 109.531 62.4702 109.531 62.4702 109.679C62.4702 109.679 63.3596 112.932 67.2877 115.89C67.3618 115.964 67.3618 116.038 67.2877 116.186C67.2877 116.112 67.2135 116.186 67.2135 116.186Z" fill="#EF6054"/>
<path d="M256.134 82.1023V110.346C256.134 111.382 255.318 112.195 254.281 112.195H225.154C224.116 112.195 223.301 111.382 223.301 110.346V82.1023C223.301 81.0672 224.116 80.2539 225.154 80.2539H254.281C255.318 80.2539 256.134 81.0672 256.134 82.1023Z" fill="white"/>
<path d="M270.883 82.1023V110.346C270.883 111.382 270.068 112.195 269.03 112.195H254.281C255.319 112.195 256.134 111.382 256.134 110.346V82.1023C256.134 81.0672 255.319 80.2539 254.281 80.2539H269.03C270.068 80.2539 270.883 81.0672 270.883 82.1023Z" fill="#E1EAF9"/>
<path d="M219.967 90.5301V110.789C219.967 111.528 219.374 112.12 218.633 112.12H197.733C196.991 112.12 196.398 111.528 196.398 110.789V90.5301C196.398 89.7907 196.991 89.1992 197.733 89.1992H218.707C219.374 89.2732 219.967 89.8647 219.967 90.5301Z" fill="white"/>
<path d="M230.565 90.5312V110.79C230.565 111.529 229.972 112.121 229.23 112.121H218.706C219.447 112.121 220.04 111.529 220.04 110.79V90.5312C220.04 89.7918 219.447 89.2003 218.706 89.2003H229.305C229.972 89.2743 230.565 89.8658 230.565 90.5312ZM210.924 89.2743V93.4148C210.924 93.8584 210.553 94.1541 210.183 94.1541H206.255C205.81 94.1541 205.514 93.7845 205.514 93.4148V89.2743H210.924ZM242.719 80.2539V85.3556C242.719 85.8731 242.275 86.3168 241.756 86.3168H236.864C236.345 86.3168 235.901 85.8731 235.901 85.3556V80.2539H242.719Z" fill="#E1EAF9"/>
<path d="M232.565 136.665V164.909C232.565 165.944 231.75 166.757 230.712 166.757H201.585C200.548 166.757 199.732 165.944 199.732 164.909V136.665C199.732 135.63 200.548 134.816 201.585 134.816H230.712C231.75 134.816 232.565 135.63 232.565 136.665Z" fill="white"/>
<path d="M247.315 136.665V164.909C247.315 165.944 246.499 166.757 245.462 166.757H230.713C231.75 166.757 232.566 165.944 232.566 164.909V136.665C232.566 135.63 231.75 134.816 230.713 134.816H245.462C246.499 134.816 247.315 135.63 247.315 136.665Z" fill="#E1EAF9"/>
<path d="M196.397 145.171V165.43C196.397 166.169 195.804 166.76 195.063 166.76H174.162C173.421 166.76 172.828 166.169 172.828 165.43V145.171C172.828 144.431 173.421 143.84 174.162 143.84H195.063C195.804 143.84 196.397 144.431 196.397 145.171Z" fill="white"/>
<path d="M206.996 145.168V165.427C206.996 166.166 206.403 166.757 205.662 166.757H195.064C195.805 166.757 196.398 166.166 196.398 165.427V145.168C196.398 144.428 195.805 143.837 195.064 143.837H205.662C206.403 143.837 206.996 144.428 206.996 145.168ZM187.356 143.837V147.977C187.356 148.421 186.985 148.717 186.615 148.717H182.686C182.242 148.717 181.945 148.347 181.945 147.977V143.837H187.356ZM219.151 134.816V139.918C219.151 140.436 218.706 140.879 218.187 140.879H213.296C212.777 140.879 212.332 140.436 212.332 139.918V134.816H219.151Z" fill="#E1EAF9"/>
<path d="M297.49 337.333C297.49 338.886 296.23 340.143 294.673 340.143H135.326C133.77 340.143 132.51 338.886 132.51 337.333C132.51 335.78 133.77 334.523 135.326 334.523H294.747C296.23 334.597 297.49 335.78 297.49 337.333Z" fill="white"/>
<path d="M294.673 340.294H135.326C133.695 340.294 132.361 338.963 132.361 337.336C132.361 335.71 133.695 334.379 135.326 334.379H294.747C296.378 334.379 297.712 335.71 297.712 337.336C297.712 338.963 296.378 340.294 294.673 340.294ZM135.326 334.749C133.918 334.749 132.732 335.932 132.732 337.336C132.732 338.741 133.918 339.924 135.326 339.924H294.747C296.155 339.924 297.341 338.741 297.341 337.336C297.341 335.932 296.155 334.749 294.747 334.749H135.326Z" fill="#1E7034"/>
<path d="M295.86 115.078C295.045 115.448 291.561 115.152 287.707 116.039C286.447 116.335 285.336 116.483 284.446 116.557C284.15 116.335 283.927 116.039 283.705 115.744C286.373 114.783 288.967 113.821 291.635 112.86C292.747 112.417 294.007 111.973 294.748 111.012C295.119 112.564 295.489 113.821 295.712 114.561C295.786 114.783 295.786 115.004 295.86 115.078Z" fill="#F9695D"/>
</svg>
